HIERARCHY
ROOT root
{
	OFFSET 0.000000 0.000000 0.000000
	CHANNELS 6 Xposition Yposition Zposition Zrotation Yrotation Xrotation
	JOINT lhip
	{
		OFFSET 0.058581 -0.082280 -0.017664
		CHANNELS 3 Zrotation Yrotation Xrotation
		JOINT lknee
		{
			OFFSET 0.043451 -0.386469 0.008037
			CHANNELS 3 Zrotation Yrotation Xrotation
			JOINT lankle
			{
				OFFSET -0.014790 -0.426874 -0.037428
				CHANNELS 3 Zrotation Yrotation Xrotation
				JOINT ltoe
				{
					OFFSET 0.041054 -0.060286 0.122042
					CHANNELS 3 Zrotation Yrotation Xrotation
					End Site
					{
						OFFSET 0.000000 0.000000 0.000000
					}
				}
			}
		}
	}
	JOINT rhip
	{
		OFFSET -0.060310 -0.090513 -0.013543
		CHANNELS 3 Zrotation Yrotation Xrotation
		JOINT rknee
		{
			OFFSET -0.043257 -0.383688 -0.004843
			CHANNELS 3 Zrotation Yrotation Xrotation
			JOINT rankle
			{
				OFFSET 0.019056 -0.420046 -0.034562
				CHANNELS 3 Zrotation Yrotation Xrotation
				JOINT rtoe
				{
					OFFSET -0.034840 -0.062106 0.130323
					CHANNELS 3 Zrotation Yrotation Xrotation
					End Site
					{
						OFFSET 0.000000 0.000000 0.000000
					}
				}
			}
		}
	}
	JOINT lowerback
	{
		OFFSET 0.004439 0.124404 -0.038385
		CHANNELS 3 Zrotation Yrotation Xrotation
		JOINT upperback
		{
			OFFSET 0.004488 0.137956 0.026820
			CHANNELS 3 Zrotation Yrotation Xrotation
			JOINT chest
			{
				OFFSET -0.002265 0.056032 0.002855
				CHANNELS 3 Zrotation Yrotation Xrotation
				JOINT lowerneck
				{
					OFFSET -0.013390 0.211636 -0.033468
					CHANNELS 3 Zrotation Yrotation Xrotation
					JOINT upperneck
					{
						OFFSET 0.010113 0.088937 0.050410
						CHANNELS 3 Zrotation Yrotation Xrotation
						End Site
						{
							OFFSET 0.000000 0.000000 0.000000
						}
					}
				}
				JOINT lclavicle
				{
					OFFSET 0.071702 0.114000 -0.018898
					CHANNELS 3 Zrotation Yrotation Xrotation
					JOINT lshoulder
					{
						OFFSET 0.122921 0.045205 -0.019046
						CHANNELS 3 Zrotation Yrotation Xrotation
						JOINT lelbow
						{
							OFFSET 0.255332 -0.015649 -0.022946
							CHANNELS 3 Zrotation Yrotation Xrotation
							JOINT lwrist
							{
								OFFSET 0.265709 0.012698 -0.007375
								CHANNELS 3 Zrotation Yrotation Xrotation
								End Site
								{
									OFFSET 0.000000 0.000000 0.000000
								}
							}
						}
					}
				}
				JOINT rclavicle
				{
					OFFSET -0.082954 0.112472 -0.023707
					CHANNELS 3 Zrotation Yrotation Xrotation
					JOINT rshoulder
					{
						OFFSET -0.113228 0.046853 -0.008472
						CHANNELS 3 Zrotation Yrotation Xrotation
						JOINT relbow
						{
							OFFSET -0.260127 -0.014369 -0.031269
							CHANNELS 3 Zrotation Yrotation Xrotation
							JOINT rwrist
							{
								OFFSET -0.269108 0.006794 -0.006027
								CHANNELS 3 Zrotation Yrotation Xrotation
								End Site
								{
									OFFSET 0.000000 0.000000 0.000000
								}
							}
						}
					}
				}
			}
		}
	}
}
MOTION
Frames: 13
Frame Time: 0.033333
-0.469877 0.292595 1.003434 85.743505 0.128109 87.982685 -0.615933 2.585028 6.482692 -2.817159 -3.262582 0.693238 1.526081 11.641116 -8.844112 0.000000 -0.000000 0.000000 -2.476102 -3.258451 -1.586347 0.899413 -2.661358 10.741414 4.411268 -6.697826 -6.764533 0.000000 -0.000000 0.000000 -1.660249 0.653553 -2.475840 1.531303 -3.066114 5.660716 -0.891579 -0.473015 -1.614429 1.297659 6.287446 15.277199 1.162677 6.464080 20.202857 -25.228128 5.477960 -1.373446 -57.502960 -7.873270 16.529116 2.717076 -18.677013 7.103360 -4.385993 -10.271384 3.711318 26.779173 -2.253698 0.125704 57.989723 7.312125 16.591132 -6.684475 16.926469 0.968508 6.822731 7.304229 3.598658 
-0.469957 0.292778 1.003426 85.658254 0.170240 87.999038 -0.572642 2.527923 6.515381 -2.851536 -3.200553 0.605989 1.541372 11.597183 -8.794746 0.000000 -0.000000 0.000000 -2.441333 -3.182500 -1.577661 0.932869 -2.574774 10.690645 4.291934 -6.741698 -6.490164 0.000000 -0.000000 0.000000 -1.619031 0.654338 -2.509632 1.500572 -2.988956 5.707602 -0.866702 -0.513410 -1.552848 1.285061 6.227464 15.046102 1.133602 6.541869 20.411764 -25.169675 5.397645 -1.189660 -57.575810 -7.960727 16.458961 2.776207 -18.869123 7.250243 -4.256980 -10.010267 3.448353 26.819793 -2.222712 0.252128 57.961495 7.495209 16.648235 -6.699166 16.975529 0.884018 6.798237 7.216767 3.495662 
-0.470141 0.292805 1.003396 85.589032 0.212880 88.097616 -0.537240 2.476090 6.382637 -2.882721 -3.099091 0.619192 1.505995 11.601648 -8.746593 0.000000 -0.000000 0.000000 -2.396055 -3.203547 -1.742845 0.921965 -2.552972 10.731058 4.376868 -6.706567 -6.584410 0.000000 -0.000000 0.000000 -1.626772 0.683341 -2.591507 1.508835 -3.005134 5.747921 -0.854055 -0.573333 -1.524233 1.313488 6.272901 14.945882 1.110558 6.489235 20.410791 -25.134640 5.404088 -1.156339 -57.617765 -7.991964 16.431601 2.783094 -18.906007 7.175189 -3.976062 -9.957367 3.284909 26.827473 -2.188027 0.240948 57.929587 7.606082 16.696005 -6.616241 17.031582 0.978509 6.691525 7.137858 3.459317 
-0.470132 0.292996 1.003513 85.430260 0.275736 88.041203 -0.479088 2.536130 6.495041 -2.883319 -3.069825 0.572933 1.555964 11.675175 -8.754329 0.000000 -0.000000 0.000000 -2.340723 -3.202024 -1.723955 0.910675 -2.475650 10.764037 4.475916 -6.672515 -6.578536 0.000000 -0.000000 0.000000 -1.589825 0.695641 -2.363518 1.518745 -2.936103 5.515271 -0.829137 -0.604171 -1.497840 1.311994 6.182608 14.935601 1.079298 6.552986 20.562038 -25.193300 5.397503 -1.099248 -57.581787 -7.898348 16.460062 2.845111 -19.055350 7.388668 -3.956661 -9.786460 3.252464 26.801201 -2.215871 0.184026 57.941999 7.613769 16.768325 -6.535074 17.105044 1.145487 6.641182 7.019580 3.442473 
-0.469956 0.293231 1.003523 85.377804 0.295715 88.005913 -0.490769 2.504079 6.552098 -2.867045 -2.976621 0.579769 1.619374 11.705405 -8.776112 0.000000 -0.000000 0.000000 -2.334123 -3.197600 -1.661891 0.909095 -2.449651 10.733359 4.461815 -6.665608 -6.543952 0.000000 -0.000000 0.000000 -1.552485 0.688168 -2.314592 1.499220 -2.947046 5.468660 -0.850671 -0.589268 -1.457787 1.288074 6.133574 14.925694 1.082902 6.514601 20.562837 -25.147950 5.394385 -1.082320 -57.619999 -7.907725 16.479261 2.872956 -19.136887 7.574343 -4.213424 -9.677426 3.338689 26.748259 -2.229163 0.177081 58.026469 7.665597 16.755085 -6.551747 17.122490 1.155556 6.790495 7.002499 3.409311 
-0.470109 0.293503 1.003439 85.290340 0.315573 88.038416 -0.523259 2.512727 6.479395 -2.843162 -2.923939 0.654613 1.678913 11.768230 -8.809235 0.000000 -0.000000 0.000000 -2.306151 -3.131945 -1.752165 0.875458 -2.404763 10.781404 4.503102 -6.727769 -6.562987 0.000000 -0.000000 0.000000 -1.566064 0.666997 -2.234808 1.500471 -2.944504 5.318328 -0.845609 -0.591660 -1.466008 1.258055 6.131275 14.925695 1.165796 6.518878 20.796961 -25.126234 5.407746 -1.040112 -57.630485 -7.865964 16.520791 2.916904 -19.187628 7.703539 -4.446493 -9.602972 3.325461 26.727438 -2.196990 0.295051 58.008296 7.723454 16.800872 -6.555793 17.203570 1.232976 6.885436 7.018312 3.244997 
-0.470238 0.293728 1.003488 85.281955 0.340224 88.060206 -0.483864 2.511636 6.407770 -2.901230 -2.917654 0.733885 1.650998 11.753180 -8.857845 0.000000 -0.000000 0.000000 -2.300255 -3.102798 -1.790171 0.893845 -2.386894 10.808971 4.436415 -6.628811 -6.514221 0.000000 -0.000000 0.000000 -1.572411 0.645939 -2.126372 1.505602 -2.978640 5.212620 -0.828580 -0.627375 -1.492134 1.226685 6.110865 15.038876 1.164410 6.550848 20.743348 -25.180928 5.384006 -1.036740 -57.607680 -7.841335 16.530588 2.952822 -19.165340 7.699311 -4.495569 -9.642750 3.282129 26.739713 -2.157404 0.247962 58.020258 7.722906 16.807476 -6.651278 17.163403 1.195090 6.880581 7.064453 3.259042 
-0.470291 0.293822 1.003435 85.231086 0.388234 88.057810 -0.481220 2.491554 6.351454 -2.845834 -2.934912 0.837460 1.633879 11.811016 -8.914700 0.000000 -0.000000 0.000000 -2.248304 -3.075491 -1.810153 0.875906 -2.397827 10.781605 4.537197 -6.688787 -6.581966 0.000000 -0.000000 0.000000 -1.575434 0.657476 -2.044539 1.520170 -2.988446 5.131341 -0.822272 -0.651053 -1.454724 1.286454 6.118143 14.987561 1.169234 6.566118 20.894906 -25.246454 5.377674 -1.051547 -57.522807 -7.917202 16.476094 2.772858 -18.918795 7.490710 -4.011913 -9.883393 3.081523 26.796415 -2.122496 0.266624 57.948277 7.807197 16.841239 -6.632683 17.140000 1.119033 6.614017 7.118882 3.247764 
-0.470184 0.294291 1.003372 85.155466 0.329439 87.988243 -0.575720 2.571525 6.498607 -2.829395 -2.896023 0.693122 1.684628 11.731323 -8.833936 0.000000 -0.000000 0.000000 -2.338243 -3.113966 -1.768291 0.862030 -2.347756 10.837693 4.505813 -6.612923 -6.498704 0.000000 -0.000000 0.000000 -1.674450 0.750269 -2.047502 1.540373 -2.981197 5.395140 -0.801053 -0.686034 -1.537845 1.245163 6.051187 14.947990 1.236973 6.519340 20.753789 -25.226082 5.265651 -1.005840 -57.533835 -7.903812 16.501003 2.830716 -19.256531 7.556346 -4.243418 -9.600878 3.344242 26.782695 -2.034058 0.294644 57.887502 7.816487 16.781228 -6.706108 17.275628 1.024129 6.721438 7.088998 3.325333 
-0.470459 0.294884 1.003345 85.227476 0.329868 88.038061 -0.588856 2.547207 6.337075 -2.879918 -2.948739 0.840558 1.686015 11.739838 -8.885867 0.000000 -0.000000 0.000000 -2.386991 -3.150109 -1.783095 0.878920 -2.407189 10.745990 4.626491 -6.680430 -6.586912 0.000000 -0.000000 0.000000 -1.706568 0.798064 -2.136857 1.560959 -2.981218 5.552374 -0.789736 -0.769887 -1.492117 1.236572 6.031844 14.904429 1.090963 6.399068 20.761523 -25.256905 5.153944 -0.911545 -57.472386 -8.075429 16.372812 2.629052 -19.270802 7.389570 -3.902684 -9.685171 3.212018 26.752466 -1.939133 0.272012 57.828475 7.894713 16.747824 -6.654402 17.215687 0.962835 6.536156 7.091510 3.392371 
-0.470781 0.295395 1.003464 85.270346 0.340474 88.057418 -0.583571 2.539716 6.287336 -2.929422 -2.974538 0.845724 1.733254 11.749051 -8.880143 0.000000 -0.000000 0.000000 -2.395299 -3.089750 -1.806842 0.877743 -2.391260 10.754486 4.654918 -6.733976 -6.577622 0.000000 -0.000000 0.000000 -1.742816 0.761566 -1.977082 1.559098 -2.961550 5.407259 -0.777125 -0.745200 -1.434669 1.268654 6.061540 14.874929 1.160004 6.496130 20.811638 -25.231351 5.213591 -0.912132 -57.484499 -8.099921 16.455925 2.655360 -19.482822 7.647025 -4.015045 -9.779980 3.192035 26.767972 -1.958958 0.225179 57.763864 7.892738 16.782733 -6.602645 17.191464 1.054856 6.596256 7.101729 3.343942 
-0.471222 0.296332 1.003383 85.450340 0.304328 88.098508 -0.659096 2.418841 6.231351 -2.936080 -2.990997 0.785012 1.709961 11.644869 -8.780410 0.000000 -0.000000 0.000000 -2.501128 -3.097131 -1.859652 0.902138 -2.478567 10.766613 4.539989 -6.703278 -6.410709 0.000000 -0.000000 0.000000 -1.784069 0.623071 -1.718052 1.484190 -3.048380 5.129136 -0.761792 -0.609502 -1.378278 1.279624 5.995269 14.934369 1.309888 6.526816 20.938402 -25.163942 5.187151 -0.863381 -57.550776 -8.129917 16.507334 2.683625 -19.479728 7.629428 -3.818355 -9.886994 3.041238 26.809347 -1.936279 0.283699 57.712055 7.904542 16.836682 -6.569295 17.167858 1.111404 6.635628 7.182142 3.328984 
-0.471732 0.297419 1.003355 85.581136 0.363806 88.137900 -0.648315 2.424183 6.121189 -2.910554 -3.006306 0.862975 1.740050 11.546845 -8.798976 0.000000 -0.000000 0.000000 -2.503272 -3.225262 -1.899022 0.910834 -2.479722 10.794506 4.471790 -6.605077 -6.132386 0.000000 -0.000000 0.000000 -1.800033 0.673787 -1.682064 1.512849 -3.081975 5.296422 -0.720233 -0.586554 -1.411485 1.266973 5.920622 14.926651 1.360893 6.508224 21.037014 -25.183301 5.015451 -0.773214 -57.536664 -8.151021 16.551601 2.754515 -19.758699 7.723505 -4.077502 -9.760991 3.159654 26.826712 -1.857382 0.340471 57.624001 7.901687 16.755623 -6.665241 17.274846 1.016893 6.748091 7.067114 3.380253 
